<?xml version="1.0" encoding="UTF-8" standalone="no"?>
<!DOCTYPE svg PUBLIC "-//W3C//DTD SVG 1.1//EN" "http://www.w3.org/Graphics/SVG/1.1/DTD/svg11.dtd">
<svg width="100%" height="100%" viewBox="0 0 800 600" version="1.1" xmlns="http://www.w3.org/2000/svg" xmlns:xlink="http://www.w3.org/1999/xlink" xml:space="preserve" xmlns:serif="http://www.serif.com/" style="fill-rule:evenodd;clip-rule:evenodd;stroke-linecap:round;stroke-linejoin:round;stroke-miterlimit:1.5;">
    <g transform="matrix(1,0,0,0.855422,94,140.036)">
        <path d="M389,187L472,353L306,353L389,187Z" style="fill:none;stroke:rgb(255,0,170);stroke-width:3.76px;"/>
    </g>
    <g transform="matrix(1,0,0,0.855422,11,-1.96386)">
        <path d="M389,187L472,353L306,353L389,187Z" style="fill:none;stroke:rgb(255,0,170);stroke-width:3.76px;"/>
    </g>
    <g transform="matrix(1,0,0,0.855422,-72,140.036)">
        <path d="M389,187L472,353L306,353L389,187Z" style="fill:none;stroke:rgb(255,0,170);stroke-width:3.76px;"/>
    </g>
    <g transform="matrix(1,0,0,-0.855422,177,502.964)">
        <path d="M389,187L472,353L306,353L389,187Z" style="fill:none;stroke:rgb(0,3,255);stroke-width:3.76px;"/>
    </g>
    <g transform="matrix(1,0,0,-0.855422,94,644.964)">
        <path d="M389,187L472,353L306,353L389,187Z" style="fill:none;stroke:rgb(0,3,255);stroke-width:3.76px;"/>
    </g>
    <g transform="matrix(1,0,0,-0.855422,11,502.964)">
        <path d="M389,187L472,353L306,353L389,187Z" style="fill:none;stroke:rgb(0,3,255);stroke-width:3.76px;"/>
    </g>
    <g transform="matrix(1,0,0,-0.855422,14,506.964)">
        <path d="M389,187L472,353L306,353L389,187Z" style="fill:none;stroke:rgb(0,255,189);stroke-width:3.76px;"/>
    </g>
    <g transform="matrix(1,0,0,-0.855422,-69,648.964)">
        <path d="M389,187L472,353L306,353L389,187Z" style="fill:none;stroke:rgb(0,255,189);stroke-width:3.76px;"/>
    </g>
    <g transform="matrix(1,0,0,-0.855422,-152,506.964)">
        <path d="M389,187L472,353L306,353L389,187Z" style="fill:none;stroke:rgb(0,255,189);stroke-width:3.76px;"/>
    </g>
</svg>
